<?xml version="1.0" standalone="no"?><!DOCTYPE svg PUBLIC "-//W3C//DTD SVG 1.1//EN" "http://www.w3.org/Graphics/SVG/1.1/DTD/svg11.dtd"><svg t="1537517874624" class="icon" style="" viewBox="0 0 1024 1024" version="1.1" xmlns="http://www.w3.org/2000/svg" p-id="1111" xmlns:xlink="http://www.w3.org/1999/xlink" width="16" height="16"><defs><style type="text/css"></style></defs><path d="M877.473792 929.594368l-730.948608 0c-28.832768 0-52.210688-23.37792-52.210688-52.210688l0-652.633088c0-28.832768 23.37792-52.210688 52.210688-52.210688l730.948608 0c28.832768 0 52.210688 23.37792 52.210688 52.210688l0 652.633088C929.685504 906.216448 906.30656 929.594368 877.473792 929.594368zM877.473792 224.749568l-730.948608 0 0 652.633088 730.948608 0L877.473792 224.749568zM407.394304 251.053056c0 14.416896-11.68896 26.105856-26.105856 26.105856l0 0c-14.416896 0-26.105856-11.68896-26.105856-26.105856l0-130.526208c0-14.416896 11.68896-26.105856 26.105856-26.105856l0 0c14.416896 0 26.105856 11.68896 26.105856 26.105856L407.394304 251.053056zM668.452864 251.053056c0 14.416896-11.701248 26.105856-26.104832 26.105856l0 0c-14.429184 0-26.104832-11.68896-26.104832-26.105856l0-130.526208c0-14.416896 11.675648-26.105856 26.104832-26.105856l0 0c14.403584 0 26.104832 11.68896 26.104832 26.105856L668.452864 251.053056zM694.736896 407.487488l52.210688 0c14.415872 0 26.104832 11.68896 26.104832 26.104832L773.052416 485.803008c0 14.416896-11.68896 26.104832-26.104832 26.104832l-52.210688 0c-14.416896 0-26.104832-11.68896-26.104832-26.104832L668.632064 433.59232C668.632064 419.176448 680.32 407.487488 694.736896 407.487488zM694.736896 616.33024l52.210688 0c14.415872 0 26.104832 11.68896 26.104832 26.104832l0 52.210688c0 14.415872-11.68896 26.104832-26.104832 26.104832l-52.210688 0c-14.416896 0-26.104832-11.68896-26.104832-26.104832l0-52.210688C668.632064 628.0192 680.32 616.33024 694.736896 616.33024zM485.894144 616.33024l52.210688 0c14.416896 0 26.104832 11.68896 26.104832 26.104832l0 52.210688c0 14.415872-11.687936 26.104832-26.104832 26.104832L485.894144 720.750592c-14.416896 0-26.105856-11.68896-26.105856-26.104832l0-52.210688C459.789312 628.0192 471.478272 616.33024 485.894144 616.33024zM485.894144 407.487488l52.210688 0c14.416896 0 26.104832 11.68896 26.104832 26.104832L564.209664 485.803008c0 14.416896-11.687936 26.104832-26.104832 26.104832L485.894144 511.90784c-14.416896 0-26.105856-11.68896-26.105856-26.104832L459.788288 433.59232C459.789312 419.176448 471.478272 407.487488 485.894144 407.487488zM277.052416 407.487488l52.210688 0c14.416896 0 26.105856 11.68896 26.105856 26.104832L355.36896 485.803008c0 14.416896-11.68896 26.104832-26.105856 26.104832l-52.210688 0c-14.416896 0-26.105856-11.68896-26.105856-26.104832L250.94656 433.59232C250.94656 419.176448 262.63552 407.487488 277.052416 407.487488zM277.052416 616.33024l52.210688 0c14.416896 0 26.105856 11.68896 26.105856 26.104832l0 52.210688c0 14.415872-11.68896 26.104832-26.105856 26.104832l-52.210688 0c-14.416896 0-26.105856-11.68896-26.105856-26.104832l0-52.210688C250.94656 628.0192 262.63552 616.33024 277.052416 616.33024z" p-id="1112" fill="#000000a6"></path></svg>